<svg version="1" xmlns="http://www.w3.org/2000/svg" width="666.667" height="666.667" viewBox="0 0 500.000000 500.000000"><path d="M0 250v250h500V0H0v250zM188.4 95.4c10.7 2.3 39.1 11.2 43.8 13.7 1.7.9 1.8 2.9 1.8 25.4V159h-18l-.6-2.8c-4.5-20.5-16.9-37.6-31.5-43.4-23.5-9.4-51.7-3.5-64.7 13.5-12 15.6-16.7 35.7-16.7 70.7 0 34.8 4.7 54.7 16.5 70.6 16.4 22 56.9 24.3 76.6 4.5 5.6-5.6 11.7-16.3 14.5-25.1l1.7-5.5 13.7-.3 13.7-.3-.7 3.3c-.4 1.7-2 6.3-3.5 10.1-9.8 23.9-26 38.1-51.2 44.7-11.5 3-38 3.8-52.6 1.6-45.3-6.9-76.4-35.2-85.3-77.6-3-14.7-3-37.2 0-51.9 8.2-39.1 35.3-66.5 75-75.7 12.1-2.8 17.7-3.3 36.6-2.9 15.8.3 21 .8 30.9 2.9zM457 120.5V146h-19v-32h-55v168h27v16H303v-16h27V114h-55v32h-19V95h201v25.5zm3 207.5v6H32v-12h428v6zm-278.5 56c.4.6 7.8 1 19.1 1H219v5c0 4.3-.3 5-2 5-1.6 0-2-.7-2-3.5V388h-13v39h3c2 0 3 .5 3 1.5 0 1.2-1.7 1.5-9 1.5s-9-.3-9-1.5c0-.9.9-1.5 2.5-1.5h2.5v-39h-12v3.5c0 3.1-.3 3.5-2.5 3.5s-2.5-.4-2.5-4c0-3.4-.4-4.1-2.4-4.6-3.5-.8-6.2 1-7 4.7-1.3 6.4-1 6.9 3.9 6.9 3.3 0 4.5.4 4.5 1.5s-1.2 1.5-4.5 1.5H168v26h4c2.9 0 4 .4 4 1.5 0 1.2-1.7 1.5-9.5 1.5s-9.5-.3-9.5-1.5c0-.9.9-1.5 2.5-1.5h2.5v-26h-2.5c-1.6 0-2.5-.6-2.5-1.5s.9-1.5 2.5-1.5c2.1 0 2.5-.5 2.5-2.9 0-4.6 2-9 4.9-10.6 3-1.6 13.7-2 14.6-.5zm82.5 21v22h2.5c1.6 0 2.5.6 2.5 1.5 0 1.2-1.6 1.5-8.5 1.5s-8.5-.3-8.5-1.5c0-1 1-1.5 3-1.5h3v-41h-3c-2 0-3-.5-3-1.5 0-1.2 1.3-1.5 6-1.5h6v22zm20-6.8v15.2l6-5.9c5.2-5.1 5.8-6 4-6.3-1.1-.2-2-1-2-1.8 0-1.1 1.7-1.4 7.5-1.4 6 0 7.5.3 7.5 1.5 0 .9-.9 1.5-2.5 1.5-3.1 0-11.8 7.7-11 9.7.2.8 2.9 4.8 5.7 8.8 3.9 5.5 5.9 7.5 7.6 7.5 1.3 0 2.2.6 2.2 1.5 0 1.2-1.6 1.5-8 1.5-6.3 0-8-.3-8-1.4 0-.8.9-1.6 2-1.8 1.8-.3 1.7-.8-2.1-6.1-2.2-3.1-4.6-5.7-5.3-5.7-2.4 0-3.6 2.5-3.6 7.2 0 4.5.2 4.8 2.5 4.8 1.6 0 2.5.6 2.5 1.5 0 1.2-1.6 1.5-8 1.5s-8-.3-8-1.5c0-.9.9-1.5 2.5-1.5h2.5v-41h-3c-2 0-3-.5-3-1.5 0-1.2 1.3-1.5 6-1.5h6v15.2zM68.5 385.3l5 1.3.3 5.2c.3 4.7.1 5.2-1.8 5.2-1.2 0-2.4-.9-3-2.4-2.3-6.2-12-9.2-18.7-6-5.7 2.8-8.3 8.7-8.3 18.9.1 12.6 3.8 18.8 12.2 20.1 4.9.8 10.4-1.8 12.9-6.1 1.6-2.7 2.7-3.5 5-3.5 3.2 0 3.1 1.3-.4 6.4-4.5 6.4-17 8.6-25.5 4.5-15.7-7.7-15.9-34.3-.3-42.6 5.1-2.7 14.4-3.1 22.6-1zm36.3 13.7c5.1 3.1 7.2 7.5 7.2 15s-2.1 11.9-7.2 15c-4.4 2.6-12.2 2.7-16.5 0-9.6-5.8-9.6-24.2 0-30 4.3-2.7 12.1-2.6 16.5 0zm39.7.3c3.2 2.7 4.4 7.9 4.5 19.4 0 7.6.2 8.3 2 8.3 1.1 0 2 .7 2 1.5 0 1.2-1.5 1.5-7.5 1.5s-7.5-.3-7.5-1.5c0-.8.9-1.5 2-1.5 1.9 0 2-.7 2-11 0-9.7-.2-11.2-2-13-2.5-2.5-5.1-2.5-7.9-.3-2.7 2.2-4 7.7-4.1 17 0 7.1.1 7.3 2.5 7.3 1.6 0 2.5.6 2.5 1.5 0 1.2-1.6 1.5-8 1.5s-8-.3-8-1.5c0-.9.9-1.5 2.5-1.5h2.5v-26h-2.5c-1.6 0-2.5-.6-2.5-1.5 0-1.2 1.3-1.5 5.5-1.5 4.9 0 5.5.2 5.5 2.1 0 2 .1 2 3.1-.5 4-3.4 9.7-3.5 13.4-.3zm96.1.9c3.1 3 4.3 8.3 4.4 19 0 7.1.2 7.8 2 7.8 1.1 0 2 .7 2 1.5 0 1.2-1.3 1.5-5.5 1.5-3.2 0-5.5-.4-5.5-1.1 0-.5-1-.3-2.2.5-2.8 2-10 2.1-13.7.2-5.7-3-6.8-10.7-2.2-15.8 2.7-3 3.4-3.3 10.5-3.6 7.6-.4 7.6-.4 7.6-3.2 0-1.6-.7-3.5-1.5-4.3-3.6-3.6-11.7-2.8-13 1.2-.4 1.2-1.5 2.1-2.6 2.1-1.7 0-2-.6-1.7-3.7.4-4.5 2.3-5.3 12.1-5 5.7.2 7.1.6 9.3 2.9zm91.9-1.8c3.1 1.3 3.5 1.9 3.5 5 0 4.6-3 5-4.7.7-1.4-3.8-7-5.2-10.8-2.7-5.2 3.4-2.7 6.9 7.4 10.1 10.1 3.3 12.9 9.3 7.2 15.7-2.5 2.8-3.5 3.2-9.3 3.6-4.3.3-7.6-.1-10.1-1.1-3.4-1.5-3.7-1.9-3.7-5.6 0-3.3.4-4.1 1.8-4.1 1 0 2.2 1.2 2.9 3 2.8 7.5 17.2 5.5 14.8-2-.7-2.2-4.4-4.4-9-5.4-4.9-1-9.2-4.2-9.9-7.2-.9-3.6 1-8.1 4.3-9.9 3.4-1.9 11.3-1.9 15.6-.1zm55.3.6c5.1 3.1 7.2 7.5 7.2 15 0 10.9-5.6 17-15.5 17-6.3 0-10.8-2.6-13.5-7.9-4.1-8.2-1.6-19.9 5.3-24.1 4.3-2.7 12.1-2.6 16.5 0zm40 2.7c.3 3.8.1 4.3-1.7 4.3-1.2 0-2.1-.7-2.1-1.5 0-2.1-3.5-3.7-6.5-2.9-4.4 1.1-5.8 4.5-6.3 15.5l-.5 9.9h3.7c2.5 0 3.6.4 3.6 1.5 0 1.2-1.7 1.5-9 1.5s-9-.3-9-1.5c0-.9.9-1.5 2.5-1.5h2.5v-26h-2.5c-1.6 0-2.5-.6-2.5-1.5 0-1.2 1.3-1.5 5.5-1.5 4.9 0 5.5.2 5.5 2.1 0 2 .1 2 3.1-.6 2.7-2.2 4-2.5 8.3-2.3l5.1.3.3 4.2zm23.2-3.2c1.5.8 3 2 3.3 2.7.3.7.6.3.6-1 .1-2 .6-2.2 5.6-2.2 4.2 0 5.5.3 5.5 1.5 0 .9-.9 1.5-2.4 1.5h-2.4l-.4 17.2c-.3 15-.6 17.7-2.2 20.1-2.7 4-6.7 5.7-13.5 5.7-8.8 0-11.1-1.1-11.1-5.5 0-2.8.4-3.5 1.9-3.5 1 0 2.1.9 2.4 2 .7 2.6 5.3 4.3 9.4 3.5 4-.7 6.3-3.9 7-9.7l.6-4.2-2.8 2.2c-2 1.6-4.1 2.2-7.6 2.2-8.4 0-13.9-6.7-13.9-17 0-6.4 1.9-10.9 5.9-14.3 3.7-3.1 9.4-3.6 14.1-1.2zm-96.6 26.7c1.6 2.6-.4 5.3-4 5.3-2.3 0-3-.5-3.2-2.3-.2-1.3-.1-3 .2-3.8.8-2 5.6-1.4 7 .8z"/><path d="M93.2 401c-4.9 2-7 15-3.4 22 3.3 6.6 11.7 6.1 14.3-.8.6-1.5.9-6 .7-10.1-.3-6.5-.6-7.6-3.1-9.7-3-2.5-4.8-2.8-8.5-1.4zM227 414.3c-1.9 1-2.6 2.1-2.8 5.2-.3 4.8 1.3 7.3 5.3 8.1 2.2.4 3.8 0 5.8-1.6 2.3-1.9 2.7-2.9 2.7-7.6V413h-4.2c-2.4 0-5.4.6-6.8 1.3zM376.2 401c-4.9 2-7 15-3.4 22 3.3 6.6 11.7 6.1 14.3-.8.6-1.5.9-6 .7-10.1-.3-6.5-.6-7.6-3.1-9.7-3-2.5-4.8-2.8-8.5-1.4zM442.7 401.1c-6.3 3.8-6.1 22.5.3 25.9 2.9 1.5 7.7.3 9.5-2.3 3.2-5 3.1-17.6-.3-21.7-2.1-2.4-7-3.4-9.5-1.9z"/></svg>